<mxfile host="app.diagrams.net" agent="Mozilla/5.0 (Windows NT 10.0; Win64; x64) AppleWebKit/537.36 (KHTML, like Gecko) Chrome/131.0.0.0 Safari/537.36" version="25.0.3">
  <diagram name="Page-1" id="4X1Jurayd0pQoacx-YrZ">
    <mxGraphModel dx="1100" dy="585" grid="1" gridSize="10" guides="1" tooltips="1" connect="1" arrows="1" fold="1" page="1" pageScale="1" pageWidth="827" pageHeight="1169" math="0" shadow="0">
      <root>
        <mxCell id="0" />
        <mxCell id="1" parent="0" />
        <mxCell id="9" value="Room" style="swimlane;fontStyle=1;align=center;verticalAlign=top;childLayout=stackLayout;horizontal=1;startSize=27.5;horizontalStack=0;resizeParent=1;resizeParentMax=0;resizeLast=0;collapsible=0;marginBottom=0;" parent="1" vertex="1">
          <mxGeometry x="70" y="5.8700000000000045" width="239" height="355.5" as="geometry" />
        </mxCell>
        <mxCell id="10" value="+ id: int" style="text;strokeColor=none;fillColor=none;align=left;verticalAlign=top;spacingLeft=4;spacingRight=4;overflow=hidden;rotatable=0;points=[[0,0.5],[1,0.5]];portConstraint=eastwest;" parent="9" vertex="1">
          <mxGeometry y="27.5" width="239" height="28" as="geometry" />
        </mxCell>
        <mxCell id="11" value="+ capacity: int" style="text;strokeColor=none;fillColor=none;align=left;verticalAlign=top;spacingLeft=4;spacingRight=4;overflow=hidden;rotatable=0;points=[[0,0.5],[1,0.5]];portConstraint=eastwest;" parent="9" vertex="1">
          <mxGeometry y="55.5" width="239" height="28" as="geometry" />
        </mxCell>
        <mxCell id="C9b8qB7yjaKPYLwPQp-_-77" value="+ description: string" style="text;strokeColor=none;fillColor=none;align=left;verticalAlign=top;spacingLeft=4;spacingRight=4;overflow=hidden;rotatable=0;points=[[0,0.5],[1,0.5]];portConstraint=eastwest;" vertex="1" parent="9">
          <mxGeometry y="83.5" width="239" height="28" as="geometry" />
        </mxCell>
        <mxCell id="C9b8qB7yjaKPYLwPQp-_-66" value="+ type: string" style="text;strokeColor=none;fillColor=none;align=left;verticalAlign=top;spacingLeft=4;spacingRight=4;overflow=hidden;rotatable=0;points=[[0,0.5],[1,0.5]];portConstraint=eastwest;" vertex="1" parent="9">
          <mxGeometry y="111.5" width="239" height="28" as="geometry" />
        </mxCell>
        <mxCell id="12" value="+ isOccupied: boolean" style="text;strokeColor=none;fillColor=none;align=left;verticalAlign=top;spacingLeft=4;spacingRight=4;overflow=hidden;rotatable=0;points=[[0,0.5],[1,0.5]];portConstraint=eastwest;" parent="9" vertex="1">
          <mxGeometry y="139.5" width="239" height="28" as="geometry" />
        </mxCell>
        <mxCell id="C9b8qB7yjaKPYLwPQp-_-75" value="+ AdultPrice: float" style="text;strokeColor=none;fillColor=none;align=left;verticalAlign=top;spacingLeft=4;spacingRight=4;overflow=hidden;rotatable=0;points=[[0,0.5],[1,0.5]];portConstraint=eastwest;" vertex="1" parent="9">
          <mxGeometry y="167.5" width="239" height="28" as="geometry" />
        </mxCell>
        <mxCell id="C9b8qB7yjaKPYLwPQp-_-76" value="+ ChildPrice: float" style="text;strokeColor=none;fillColor=none;align=left;verticalAlign=top;spacingLeft=4;spacingRight=4;overflow=hidden;rotatable=0;points=[[0,0.5],[1,0.5]];portConstraint=eastwest;" vertex="1" parent="9">
          <mxGeometry y="195.5" width="239" height="28" as="geometry" />
        </mxCell>
        <mxCell id="13" style="line;strokeWidth=1;fillColor=none;align=left;verticalAlign=middle;spacingTop=-1;spacingLeft=3;spacingRight=3;rotatable=0;labelPosition=right;points=[];portConstraint=eastwest;strokeColor=inherit;" parent="9" vertex="1">
          <mxGeometry y="223.5" width="239" height="8" as="geometry" />
        </mxCell>
        <mxCell id="14" value="+checkAvailability() : : boolean" style="text;strokeColor=none;fillColor=none;align=left;verticalAlign=top;spacingLeft=4;spacingRight=4;overflow=hidden;rotatable=0;points=[[0,0.5],[1,0.5]];portConstraint=eastwest;" parent="9" vertex="1">
          <mxGeometry y="231.5" width="239" height="28" as="geometry" />
        </mxCell>
        <mxCell id="15" value="+bookRoom() : : boolean" style="text;strokeColor=none;fillColor=none;align=left;verticalAlign=top;spacingLeft=4;spacingRight=4;overflow=hidden;rotatable=0;points=[[0,0.5],[1,0.5]];portConstraint=eastwest;" parent="9" vertex="1">
          <mxGeometry y="259.5" width="239" height="28" as="geometry" />
        </mxCell>
        <mxCell id="C9b8qB7yjaKPYLwPQp-_-67" value="+bookRoom() : : boolean" style="text;strokeColor=none;fillColor=none;align=left;verticalAlign=top;spacingLeft=4;spacingRight=4;overflow=hidden;rotatable=0;points=[[0,0.5],[1,0.5]];portConstraint=eastwest;" vertex="1" parent="9">
          <mxGeometry y="287.5" width="239" height="28" as="geometry" />
        </mxCell>
        <mxCell id="C9b8qB7yjaKPYLwPQp-_-42" value="&lt;span style=&quot;color: rgb(0, 0, 0); font-family: Helvetica; font-size: 12px; font-style: normal; font-variant-ligatures: normal; font-variant-caps: normal; font-weight: 400; letter-spacing: normal; orphans: 2; text-align: left; text-indent: 0px; text-transform: none; widows: 2; word-spacing: 0px; -webkit-text-stroke-width: 0px; white-space: nowrap; background-color: rgb(251, 251, 251); text-decoration-thickness: initial; text-decoration-style: initial; text-decoration-color: initial; display: inline !important; float: none;&quot;&gt;&amp;nbsp;+calculateBill() : : float&lt;/span&gt;" style="text;whiteSpace=wrap;html=1;" vertex="1" parent="9">
          <mxGeometry y="315.5" width="239" height="40" as="geometry" />
        </mxCell>
        <mxCell id="16" value="Reservation" style="swimlane;fontStyle=1;align=center;verticalAlign=top;childLayout=stackLayout;horizontal=1;startSize=26.375;horizontalStack=0;resizeParent=1;resizeParentMax=0;resizeLast=0;collapsible=0;marginBottom=0;" parent="1" vertex="1">
          <mxGeometry x="434" y="62.43" width="306" height="242.375" as="geometry" />
        </mxCell>
        <mxCell id="17" value="+ id: int" style="text;strokeColor=none;fillColor=none;align=left;verticalAlign=top;spacingLeft=4;spacingRight=4;overflow=hidden;rotatable=0;points=[[0,0.5],[1,0.5]];portConstraint=eastwest;" parent="16" vertex="1">
          <mxGeometry y="26.375" width="306" height="26" as="geometry" />
        </mxCell>
        <mxCell id="18" value="+ userId: int" style="text;strokeColor=none;fillColor=none;align=left;verticalAlign=top;spacingLeft=4;spacingRight=4;overflow=hidden;rotatable=0;points=[[0,0.5],[1,0.5]];portConstraint=eastwest;" parent="16" vertex="1">
          <mxGeometry y="52.375" width="306" height="26" as="geometry" />
        </mxCell>
        <mxCell id="19" value="+ startDate: Date" style="text;strokeColor=none;fillColor=none;align=left;verticalAlign=top;spacingLeft=4;spacingRight=4;overflow=hidden;rotatable=0;points=[[0,0.5],[1,0.5]];portConstraint=eastwest;" parent="16" vertex="1">
          <mxGeometry y="78.375" width="306" height="26" as="geometry" />
        </mxCell>
        <mxCell id="20" value="+ endDate: Date" style="text;strokeColor=none;fillColor=none;align=left;verticalAlign=top;spacingLeft=4;spacingRight=4;overflow=hidden;rotatable=0;points=[[0,0.5],[1,0.5]];portConstraint=eastwest;" parent="16" vertex="1">
          <mxGeometry y="104.375" width="306" height="26" as="geometry" />
        </mxCell>
        <mxCell id="21" value="+ totalAmount: float" style="text;strokeColor=none;fillColor=none;align=left;verticalAlign=top;spacingLeft=4;spacingRight=4;overflow=hidden;rotatable=0;points=[[0,0.5],[1,0.5]];portConstraint=eastwest;" parent="16" vertex="1">
          <mxGeometry y="130.375" width="306" height="26" as="geometry" />
        </mxCell>
        <mxCell id="22" style="line;strokeWidth=1;fillColor=none;align=left;verticalAlign=middle;spacingTop=-1;spacingLeft=3;spacingRight=3;rotatable=0;labelPosition=right;points=[];portConstraint=eastwest;strokeColor=inherit;" parent="16" vertex="1">
          <mxGeometry y="156.375" width="306" height="8" as="geometry" />
        </mxCell>
        <mxCell id="23" value="+createReservation() : : boolean" style="text;strokeColor=none;fillColor=none;align=left;verticalAlign=top;spacingLeft=4;spacingRight=4;overflow=hidden;rotatable=0;points=[[0,0.5],[1,0.5]];portConstraint=eastwest;" parent="16" vertex="1">
          <mxGeometry y="164.375" width="306" height="26" as="geometry" />
        </mxCell>
        <mxCell id="24" value="+cancelReservation() : : boolean" style="text;strokeColor=none;fillColor=none;align=left;verticalAlign=top;spacingLeft=4;spacingRight=4;overflow=hidden;rotatable=0;points=[[0,0.5],[1,0.5]];portConstraint=eastwest;" parent="16" vertex="1">
          <mxGeometry y="190.375" width="306" height="26" as="geometry" />
        </mxCell>
        <mxCell id="C9b8qB7yjaKPYLwPQp-_-73" value="+displayReservations(userId: int) : : List&lt;Reservation&gt;" style="text;strokeColor=none;fillColor=none;align=left;verticalAlign=top;spacingLeft=4;spacingRight=4;overflow=hidden;rotatable=0;points=[[0,0.5],[1,0.5]];portConstraint=eastwest;" vertex="1" parent="16">
          <mxGeometry y="216.375" width="306" height="26" as="geometry" />
        </mxCell>
        <mxCell id="25" value="User" style="swimlane;fontStyle=1;align=center;verticalAlign=top;childLayout=stackLayout;horizontal=1;startSize=26.375;horizontalStack=0;resizeParent=1;resizeParentMax=0;resizeLast=0;collapsible=0;marginBottom=0;" parent="1" vertex="1">
          <mxGeometry x="440" y="480" width="360" height="308.375" as="geometry" />
        </mxCell>
        <mxCell id="26" value="+ id: int" style="text;strokeColor=none;fillColor=none;align=left;verticalAlign=top;spacingLeft=4;spacingRight=4;overflow=hidden;rotatable=0;points=[[0,0.5],[1,0.5]];portConstraint=eastwest;" parent="25" vertex="1">
          <mxGeometry y="26.375" width="360" height="26" as="geometry" />
        </mxCell>
        <mxCell id="C9b8qB7yjaKPYLwPQp-_-62" value="+ name: string" style="text;strokeColor=none;fillColor=none;align=left;verticalAlign=top;spacingLeft=4;spacingRight=4;overflow=hidden;rotatable=0;points=[[0,0.5],[1,0.5]];portConstraint=eastwest;" vertex="1" parent="25">
          <mxGeometry y="52.375" width="360" height="26" as="geometry" />
        </mxCell>
        <mxCell id="27" value="+ email: string" style="text;strokeColor=none;fillColor=none;align=left;verticalAlign=top;spacingLeft=4;spacingRight=4;overflow=hidden;rotatable=0;points=[[0,0.5],[1,0.5]];portConstraint=eastwest;" parent="25" vertex="1">
          <mxGeometry y="78.375" width="360" height="26" as="geometry" />
        </mxCell>
        <mxCell id="28" value="+ phoneNumber: string" style="text;strokeColor=none;fillColor=none;align=left;verticalAlign=top;spacingLeft=4;spacingRight=4;overflow=hidden;rotatable=0;points=[[0,0.5],[1,0.5]];portConstraint=eastwest;" parent="25" vertex="1">
          <mxGeometry y="104.375" width="360" height="26" as="geometry" />
        </mxCell>
        <mxCell id="29" value="+ password: string" style="text;strokeColor=none;fillColor=none;align=left;verticalAlign=top;spacingLeft=4;spacingRight=4;overflow=hidden;rotatable=0;points=[[0,0.5],[1,0.5]];portConstraint=eastwest;" parent="25" vertex="1">
          <mxGeometry y="130.375" width="360" height="26" as="geometry" />
        </mxCell>
        <mxCell id="C9b8qB7yjaKPYLwPQp-_-43" value="&lt;span style=&quot;color: rgb(0, 0, 0); font-family: Helvetica; font-size: 12px; font-style: normal; font-variant-ligatures: normal; font-variant-caps: normal; font-weight: 400; letter-spacing: normal; orphans: 2; text-align: left; text-indent: 0px; text-transform: none; widows: 2; word-spacing: 0px; -webkit-text-stroke-width: 0px; white-space: nowrap; background-color: rgb(251, 251, 251); text-decoration-thickness: initial; text-decoration-style: initial; text-decoration-color: initial; display: inline !important; float: none;&quot;&gt;&amp;nbsp;+ address: string&lt;/span&gt;" style="text;whiteSpace=wrap;html=1;" vertex="1" parent="25">
          <mxGeometry y="156.375" width="360" height="40" as="geometry" />
        </mxCell>
        <mxCell id="30" style="line;strokeWidth=1;fillColor=none;align=left;verticalAlign=middle;spacingTop=-1;spacingLeft=3;spacingRight=3;rotatable=0;labelPosition=right;points=[];portConstraint=eastwest;strokeColor=inherit;" parent="25" vertex="1">
          <mxGeometry y="196.375" width="360" height="8" as="geometry" />
        </mxCell>
        <mxCell id="31" value="+makeReservation(startDate: Date, endDate: Date) : : boolean" style="text;strokeColor=none;fillColor=none;align=left;verticalAlign=top;spacingLeft=4;spacingRight=4;overflow=hidden;rotatable=0;points=[[0,0.5],[1,0.5]];portConstraint=eastwest;" parent="25" vertex="1">
          <mxGeometry y="204.375" width="360" height="26" as="geometry" />
        </mxCell>
        <mxCell id="32" value="+cancelReservation(id: int) : : boolean" style="text;strokeColor=none;fillColor=none;align=left;verticalAlign=top;spacingLeft=4;spacingRight=4;overflow=hidden;rotatable=0;points=[[0,0.5],[1,0.5]];portConstraint=eastwest;" parent="25" vertex="1">
          <mxGeometry y="230.375" width="360" height="26" as="geometry" />
        </mxCell>
        <mxCell id="C9b8qB7yjaKPYLwPQp-_-74" value="+displayReservations(id: int) : : List&lt;Reservation&gt;" style="text;strokeColor=none;fillColor=none;align=left;verticalAlign=top;spacingLeft=4;spacingRight=4;overflow=hidden;rotatable=0;points=[[0,0.5],[1,0.5]];portConstraint=eastwest;" vertex="1" parent="25">
          <mxGeometry y="256.375" width="360" height="26" as="geometry" />
        </mxCell>
        <mxCell id="33" value="+payBill(totalAmount: float) : : boolean" style="text;strokeColor=none;fillColor=none;align=left;verticalAlign=top;spacingLeft=4;spacingRight=4;overflow=hidden;rotatable=0;points=[[0,0.5],[1,0.5]];portConstraint=eastwest;" parent="25" vertex="1">
          <mxGeometry y="282.375" width="360" height="26" as="geometry" />
        </mxCell>
        <mxCell id="37" value="has" style="curved=1;startArrow=none;endArrow=none;" parent="1" source="9" target="16" edge="1">
          <mxGeometry x="-0.024" relative="1" as="geometry">
            <Array as="points" />
            <mxPoint x="309" y="120" as="sourcePoint" />
            <mxPoint x="419" y="119.995" as="targetPoint" />
            <mxPoint as="offset" />
          </mxGeometry>
        </mxCell>
        <mxCell id="38" value="1" style="edgeLabel;resizable=0;labelBackgroundColor=none;fontSize=12;align=right;verticalAlign=top;" parent="37" vertex="1">
          <mxGeometry x="-1" relative="1" as="geometry">
            <mxPoint x="15" y="-23" as="offset" />
          </mxGeometry>
        </mxCell>
        <mxCell id="39" value="0..*" style="edgeLabel;resizable=0;labelBackgroundColor=none;fontSize=12;align=left;verticalAlign=bottom;" parent="37" vertex="1">
          <mxGeometry x="1" relative="1" as="geometry">
            <mxPoint x="-30" as="offset" />
          </mxGeometry>
        </mxCell>
        <mxCell id="40" value="made by" style="curved=1;startArrow=none;endArrow=none;exitX=0.5;exitY=1;entryX=0.5;entryY=0;" parent="1" source="16" target="25" edge="1">
          <mxGeometry relative="1" as="geometry">
            <Array as="points" />
          </mxGeometry>
        </mxCell>
        <mxCell id="41" value="1" style="edgeLabel;resizable=0;labelBackgroundColor=none;fontSize=12;align=right;verticalAlign=top;" parent="40" vertex="1">
          <mxGeometry x="-1" relative="1" as="geometry" />
        </mxCell>
        <mxCell id="42" value="1" style="edgeLabel;resizable=0;labelBackgroundColor=none;fontSize=12;align=left;verticalAlign=bottom;" parent="40" vertex="1">
          <mxGeometry x="1" relative="1" as="geometry" />
        </mxCell>
        <mxCell id="C9b8qB7yjaKPYLwPQp-_-45" value="Admin" style="swimlane;fontStyle=1;align=center;verticalAlign=top;childLayout=stackLayout;horizontal=1;startSize=26.375;horizontalStack=0;resizeParent=1;resizeParentMax=0;resizeLast=0;collapsible=0;marginBottom=0;" vertex="1" parent="1">
          <mxGeometry x="40" y="480" width="360" height="334.375" as="geometry" />
        </mxCell>
        <mxCell id="C9b8qB7yjaKPYLwPQp-_-63" value="+ id: int" style="text;strokeColor=none;fillColor=none;align=left;verticalAlign=top;spacingLeft=4;spacingRight=4;overflow=hidden;rotatable=0;points=[[0,0.5],[1,0.5]];portConstraint=eastwest;" vertex="1" parent="C9b8qB7yjaKPYLwPQp-_-45">
          <mxGeometry y="26.375" width="360" height="26" as="geometry" />
        </mxCell>
        <mxCell id="C9b8qB7yjaKPYLwPQp-_-46" value="+ name: string" style="text;strokeColor=none;fillColor=none;align=left;verticalAlign=top;spacingLeft=4;spacingRight=4;overflow=hidden;rotatable=0;points=[[0,0.5],[1,0.5]];portConstraint=eastwest;" vertex="1" parent="C9b8qB7yjaKPYLwPQp-_-45">
          <mxGeometry y="52.375" width="360" height="26" as="geometry" />
        </mxCell>
        <mxCell id="C9b8qB7yjaKPYLwPQp-_-47" value="+ email: string" style="text;strokeColor=none;fillColor=none;align=left;verticalAlign=top;spacingLeft=4;spacingRight=4;overflow=hidden;rotatable=0;points=[[0,0.5],[1,0.5]];portConstraint=eastwest;" vertex="1" parent="C9b8qB7yjaKPYLwPQp-_-45">
          <mxGeometry y="78.375" width="360" height="26" as="geometry" />
        </mxCell>
        <mxCell id="C9b8qB7yjaKPYLwPQp-_-48" value="+ phoneNumber: string" style="text;strokeColor=none;fillColor=none;align=left;verticalAlign=top;spacingLeft=4;spacingRight=4;overflow=hidden;rotatable=0;points=[[0,0.5],[1,0.5]];portConstraint=eastwest;" vertex="1" parent="C9b8qB7yjaKPYLwPQp-_-45">
          <mxGeometry y="104.375" width="360" height="26" as="geometry" />
        </mxCell>
        <mxCell id="C9b8qB7yjaKPYLwPQp-_-49" value="+ password: string" style="text;strokeColor=none;fillColor=none;align=left;verticalAlign=top;spacingLeft=4;spacingRight=4;overflow=hidden;rotatable=0;points=[[0,0.5],[1,0.5]];portConstraint=eastwest;" vertex="1" parent="C9b8qB7yjaKPYLwPQp-_-45">
          <mxGeometry y="130.375" width="360" height="26" as="geometry" />
        </mxCell>
        <mxCell id="C9b8qB7yjaKPYLwPQp-_-50" value="&lt;span style=&quot;color: rgb(0, 0, 0); font-family: Helvetica; font-size: 12px; font-style: normal; font-variant-ligatures: normal; font-variant-caps: normal; font-weight: 400; letter-spacing: normal; orphans: 2; text-align: left; text-indent: 0px; text-transform: none; widows: 2; word-spacing: 0px; -webkit-text-stroke-width: 0px; white-space: nowrap; background-color: rgb(251, 251, 251); text-decoration-thickness: initial; text-decoration-style: initial; text-decoration-color: initial; display: inline !important; float: none;&quot;&gt;&amp;nbsp;+ address: string&lt;/span&gt;" style="text;whiteSpace=wrap;html=1;" vertex="1" parent="C9b8qB7yjaKPYLwPQp-_-45">
          <mxGeometry y="156.375" width="360" height="40" as="geometry" />
        </mxCell>
        <mxCell id="C9b8qB7yjaKPYLwPQp-_-51" style="line;strokeWidth=1;fillColor=none;align=left;verticalAlign=middle;spacingTop=-1;spacingLeft=3;spacingRight=3;rotatable=0;labelPosition=right;points=[];portConstraint=eastwest;strokeColor=inherit;" vertex="1" parent="C9b8qB7yjaKPYLwPQp-_-45">
          <mxGeometry y="196.375" width="360" height="8" as="geometry" />
        </mxCell>
        <mxCell id="C9b8qB7yjaKPYLwPQp-_-52" value="+createRoom(room: Room) : : boolean" style="text;strokeColor=none;fillColor=none;align=left;verticalAlign=top;spacingLeft=4;spacingRight=4;overflow=hidden;rotatable=0;points=[[0,0.5],[1,0.5]];portConstraint=eastwest;" vertex="1" parent="C9b8qB7yjaKPYLwPQp-_-45">
          <mxGeometry y="204.375" width="360" height="26" as="geometry" />
        </mxCell>
        <mxCell id="C9b8qB7yjaKPYLwPQp-_-54" value="+updateRoom(room: Room) : : boolean" style="text;strokeColor=none;fillColor=none;align=left;verticalAlign=top;spacingLeft=4;spacingRight=4;overflow=hidden;rotatable=0;points=[[0,0.5],[1,0.5]];portConstraint=eastwest;" vertex="1" parent="C9b8qB7yjaKPYLwPQp-_-45">
          <mxGeometry y="230.375" width="360" height="26" as="geometry" />
        </mxCell>
        <mxCell id="C9b8qB7yjaKPYLwPQp-_-53" value="+deleteRoom(roomId: int) : : boolean" style="text;strokeColor=none;fillColor=none;align=left;verticalAlign=top;spacingLeft=4;spacingRight=4;overflow=hidden;rotatable=0;points=[[0,0.5],[1,0.5]];portConstraint=eastwest;" vertex="1" parent="C9b8qB7yjaKPYLwPQp-_-45">
          <mxGeometry y="256.375" width="360" height="26" as="geometry" />
        </mxCell>
        <mxCell id="C9b8qB7yjaKPYLwPQp-_-61" value="+cancelReservation(reservationId: int) : : boolean" style="text;strokeColor=none;fillColor=none;align=left;verticalAlign=top;spacingLeft=4;spacingRight=4;overflow=hidden;rotatable=0;points=[[0,0.5],[1,0.5]];portConstraint=eastwest;" vertex="1" parent="C9b8qB7yjaKPYLwPQp-_-45">
          <mxGeometry y="282.375" width="360" height="26" as="geometry" />
        </mxCell>
        <mxCell id="C9b8qB7yjaKPYLwPQp-_-60" value="+updateReservation(Room room) : : boolean" style="text;strokeColor=none;fillColor=none;align=left;verticalAlign=top;spacingLeft=4;spacingRight=4;overflow=hidden;rotatable=0;points=[[0,0.5],[1,0.5]];portConstraint=eastwest;" vertex="1" parent="C9b8qB7yjaKPYLwPQp-_-45">
          <mxGeometry y="308.375" width="360" height="26" as="geometry" />
        </mxCell>
        <mxCell id="C9b8qB7yjaKPYLwPQp-_-55" value="managed by" style="curved=1;startArrow=none;endArrow=none;entryX=0.5;entryY=0;entryDx=0;entryDy=0;exitX=0.5;exitY=1;exitDx=0;exitDy=0;" edge="1" parent="1" source="C9b8qB7yjaKPYLwPQp-_-42" target="C9b8qB7yjaKPYLwPQp-_-45">
          <mxGeometry x="0.0401" y="1" relative="1" as="geometry">
            <Array as="points" />
            <mxPoint x="230" y="236.37" as="sourcePoint" />
            <mxPoint x="355" y="236.37" as="targetPoint" />
            <mxPoint as="offset" />
          </mxGeometry>
        </mxCell>
        <mxCell id="C9b8qB7yjaKPYLwPQp-_-56" value="1" style="edgeLabel;resizable=0;labelBackgroundColor=none;fontSize=12;align=right;verticalAlign=top;" vertex="1" parent="C9b8qB7yjaKPYLwPQp-_-55">
          <mxGeometry x="-1" relative="1" as="geometry">
            <mxPoint x="41" y="89" as="offset" />
          </mxGeometry>
        </mxCell>
        <mxCell id="C9b8qB7yjaKPYLwPQp-_-57" value="0..*" style="edgeLabel;resizable=0;labelBackgroundColor=none;fontSize=12;align=left;verticalAlign=bottom;" vertex="1" parent="C9b8qB7yjaKPYLwPQp-_-55">
          <mxGeometry x="1" relative="1" as="geometry">
            <mxPoint x="-20" y="-100" as="offset" />
          </mxGeometry>
        </mxCell>
        <mxCell id="C9b8qB7yjaKPYLwPQp-_-69" value="managed by" style="curved=1;startArrow=none;endArrow=none;" edge="1" parent="1" source="16" target="C9b8qB7yjaKPYLwPQp-_-45">
          <mxGeometry x="0.0401" y="1" relative="1" as="geometry">
            <Array as="points" />
            <mxPoint x="360" y="236.38" as="sourcePoint" />
            <mxPoint x="381" y="324.38" as="targetPoint" />
            <mxPoint as="offset" />
          </mxGeometry>
        </mxCell>
        <mxCell id="C9b8qB7yjaKPYLwPQp-_-70" value="1" style="edgeLabel;resizable=0;labelBackgroundColor=none;fontSize=12;align=right;verticalAlign=top;" vertex="1" parent="C9b8qB7yjaKPYLwPQp-_-69">
          <mxGeometry x="-1" relative="1" as="geometry">
            <mxPoint x="-131" y="145" as="offset" />
          </mxGeometry>
        </mxCell>
        <mxCell id="C9b8qB7yjaKPYLwPQp-_-71" value="0..*" style="edgeLabel;resizable=0;labelBackgroundColor=none;fontSize=12;align=left;verticalAlign=bottom;" vertex="1" parent="C9b8qB7yjaKPYLwPQp-_-69">
          <mxGeometry x="1" relative="1" as="geometry">
            <mxPoint x="128" y="-150" as="offset" />
          </mxGeometry>
        </mxCell>
      </root>
    </mxGraphModel>
  </diagram>
</mxfile>